<svg width="120" height="120" viewBox="0 0 120 120" fill="none" xmlns="http://www.w3.org/2000/svg">
<path fill-rule="evenodd" clip-rule="evenodd" d="M60 120C93.1371 120 120 93.1371 120 60C120 26.8629 93.1371 0 60 0C26.8629 0 0 26.8629 0 60C0 93.1371 26.8629 120 60 120ZM32.4205 33.4615C27.8974 33.4615 24.2308 37.1282 24.2308 41.6513C24.2308 46.1744 27.8974 49.8411 32.4205 49.8411H88.1564C92.6795 49.8411 96.3462 46.1744 96.3462 41.6513C96.3462 37.1282 92.6795 33.4615 88.1564 33.4615H32.4205ZM39.0181 65.0833C39.0181 60.5602 42.6848 56.8935 47.2079 56.8935H73.3696C77.8927 56.8935 81.5594 60.5602 81.5594 65.0833C81.5594 69.6064 77.8927 73.273 73.3696 73.273H47.2079C42.6848 73.273 39.0181 69.6064 39.0181 65.0833ZM60.4027 80.3252C55.8796 80.3252 52.213 83.9919 52.213 88.515C52.213 93.0381 55.8796 96.7048 60.4027 96.7048C64.9258 96.7048 68.5925 93.0381 68.5925 88.515C68.5925 83.9919 64.9258 80.3252 60.4027 80.3252Z" fill="#6B79EC"/>
</svg>
